<?xml version="1.0" encoding="utf-8"?>
<!-- Generator: Adobe Illustrator 23.0.1, SVG Export Plug-In . SVG Version: 6.00 Build 0)  -->
<svg version="1.1" id="图层_1" xmlns="http://www.w3.org/2000/svg" xmlns:xlink="http://www.w3.org/1999/xlink" x="0px" y="0px"
	 viewBox="0 0 120 120" style="enable-background:new 0 0 120 120;" xml:space="preserve">
<style type="text/css">
	.st0{fill:#595757;}
	.st1{fill:#EFBA6B;}
</style>
<path class="st0" d="M87.2,95.7h-53c-4.2,0-7.5-3.4-7.5-7.5v-53c0-4.1,3.4-7.5,7.5-7.5h53c4.2,0,7.5,3.4,7.5,7.5v53
	C94.7,92.3,91.4,95.6,87.2,95.7z M34.2,32.1c-1.7,0-3.1,1.4-3.1,3.1v53c0,1.7,1.4,3.1,3.1,3.1h53c1.7,0,3.1-1.4,3.1-3.1v-53
	c0-1.7-1.4-3.1-3.1-3.1L34.2,32.1L34.2,32.1z"/>
<g>
	<path class="st1" d="M79.8,57.2L68.5,46c-0.3-0.3-0.7-0.3-1,0l-2,2c-0.3,0.3-0.3,0.7,0,1l5.1,5.1H41c-0.4,0-0.7,0.3-0.7,0.7v3
		c0,0.4,0.3,0.7,0.7,0.7h38.3C79.9,58.4,80.3,57.7,79.8,57.2z M80.3,64.9H42c-0.6,0-0.9,0.8-0.5,1.2l11.3,11.3c0.3,0.3,0.7,0.3,1,0
		l2-2c0.3-0.3,0.3-0.7,0-1l-5.1-5.1h29.6c0.4,0,0.7-0.3,0.7-0.7v-3C81,65.2,80.7,64.9,80.3,64.9z"/>
</g>
</svg>
