<?xml version="1.0" encoding="utf-8"?>
<!-- Generator: Adobe Illustrator 23.0.1, SVG Export Plug-In . SVG Version: 6.00 Build 0)  -->
<svg version="1.1" id="图层_1" xmlns="http://www.w3.org/2000/svg" xmlns:xlink="http://www.w3.org/1999/xlink" x="0px" y="0px"
	 viewBox="0 0 120 120" style="enable-background:new 0 0 120 120;" xml:space="preserve">
<style type="text/css">
	.st0{fill:#595757;}
	.st1{fill:#EFBA6B;}
</style>
<g>
	<path class="st0" d="M59.4,26.7c-18.8,0-34,15.2-34,34c0,18.8,15.2,34,34,34c18.8,0,34-15.2,34-34C93.4,41.9,78.2,26.7,59.4,26.7z
		 M59.4,90.6c-16.6,0-30-13.4-30-30c0-16.6,13.4-30,30-30c16.6,0,30,13.4,30,30C89.4,77.2,76,90.6,59.4,90.6z"/>
</g>
<g>
	<path class="st1" d="M59.4,40L41.5,50.3V71l17.9,10.3L77.3,71V50.3L59.4,40z M73.6,68.9l-14.2,8.2l-14.2-8.2V52.4l14.2-8.2
		l14.2,8.2V68.9z"/>
</g>
</svg>
