<?xml version="1.0" encoding="utf-8"?>
<!-- Generator: Adobe Illustrator 23.0.1, SVG Export Plug-In . SVG Version: 6.00 Build 0)  -->
<svg version="1.1" id="图层_1" xmlns="http://www.w3.org/2000/svg" xmlns:xlink="http://www.w3.org/1999/xlink" x="0px" y="0px"
	 viewBox="0 0 120 120" style="enable-background:new 0 0 120 120;" xml:space="preserve">
<style type="text/css">
	.st0{fill:#595757;}
	.st1{fill:#EFBA6B;}
</style>
<g>
	<path class="st0" d="M60.8,26.1c-18.8,0-34,15.2-34,34c0,18.8,15.2,34,34,34c18.8,0,34-15.2,34-34C94.8,41.4,79.6,26.1,60.8,26.1z
		 M60.8,90.1c-16.6,0-30-13.4-30-30c0-16.6,13.4-30,30-30c16.6,0,30,13.4,30,30C90.8,76.7,77.4,90.1,60.8,90.1z"/>
</g>
<g>
	<path class="st1" d="M45.7,57.6c-1.4,0-2.5,1.1-2.5,2.5s1.1,2.5,2.5,2.5c1.4,0,2.5-1.1,2.5-2.5S47.1,57.6,45.7,57.6z M60.8,57.6
		c-1.4,0-2.5,1.1-2.5,2.5s1.1,2.5,2.5,2.5c1.4,0,2.5-1.1,2.5-2.5S62.2,57.6,60.8,57.6z M76,57.6c-1.4,0-2.5,1.1-2.5,2.5
		s1.1,2.5,2.5,2.5c1.4,0,2.5-1.1,2.5-2.5S77.3,57.6,76,57.6z"/>
</g>
</svg>
