<?xml version="1.0" encoding="utf-8"?>
<!-- Generator: Adobe Illustrator 23.0.1, SVG Export Plug-In . SVG Version: 6.00 Build 0)  -->
<svg version="1.1" id="图层_1" xmlns="http://www.w3.org/2000/svg" xmlns:xlink="http://www.w3.org/1999/xlink" x="0px" y="0px"
	 viewBox="0 0 200 200" style="enable-background:new 0 0 200 200;" xml:space="preserve">
<style type="text/css">
	.st0{fill:#0162E4;}
</style>
<path class="st0" d="M143.5,112.5c1.2-0.1,2.4,0.3,3.4,0.9c1.5,1,2.5,2.5,2.9,4.2c0.4,1.8,0.2,3.6-0.6,5.3l-18.8,23.6
	c-1.7,3.3-5.6,4.5-8.5,2.5c-3-1.9-4-6.2-2.3-9.5l10.6-13.4H56.9c-3.8,0-6.9-3.1-6.9-6.8c0-3.8,3.1-6.9,6.8-6.9c0,0,0,0,0,0h86.3
	L143.5,112.5L143.5,112.5z M56.5,87.5c-1.2,0.1-2.4-0.3-3.4-0.9c-1.5-1-2.5-2.5-2.9-4.2c-0.4-1.8-0.2-3.6,0.6-5.3l18.8-23.6
	c1.7-3.3,5.6-4.5,8.5-2.5c3,1.9,4,6.2,2.3,9.5L69.8,73.8h73.4c3.8,0,6.9,3.1,6.9,6.8s-3.1,6.8-6.9,6.8H56.8L56.5,87.5L56.5,87.5z
	 M12.5,24.9c0-6.9,5.6-12.4,12.4-12.4h150.1c6.9,0,12.4,5.6,12.4,12.4v150.1c0,6.9-5.6,12.4-12.4,12.4H24.9
	c-6.9,0-12.4-5.6-12.4-12.4V24.9z M25,31.3v137.5c0,3.5,2.8,6.3,6.2,6.3c0,0,0,0,0,0h137.5c3.5,0,6.3-2.8,6.3-6.3V31.3
	c0-3.5-2.8-6.3-6.3-6.3H31.3C27.8,25,25,27.8,25,31.3z"/>
</svg>
