<?xml version="1.0" encoding="utf-8"?>
<!-- Generator: Adobe Illustrator 23.0.1, SVG Export Plug-In . SVG Version: 6.00 Build 0)  -->
<svg version="1.1" id="图层_1" xmlns="http://www.w3.org/2000/svg" xmlns:xlink="http://www.w3.org/1999/xlink" x="0px" y="0px"
	 viewBox="0 0 120 120" style="enable-background:new 0 0 120 120;" xml:space="preserve">
<style type="text/css">
	.st0{fill:#F0F1F5;}
	.st1{fill:#E8AAAF;}
	.st2{fill:#C6CFD6;}
	.st3{fill:#98DDCA;}
</style>
<g>
	<path class="st0" d="M100.9,102H18.1c-5.6,0-10.2-4.6-10.2-10.2V27.6c0-5.6,4.6-10.2,10.2-10.2h82.7c5.6,0,10.2,4.6,10.2,10.2v64.2
		C111.1,97.4,106.5,102,100.9,102z M18.1,20.3c-4,0-7.3,3.3-7.3,7.3v64.2c0,4,3.3,7.3,7.3,7.3h82.7c4,0,7.3-3.3,7.3-7.3V27.6
		c0-4-3.3-7.3-7.3-7.3H18.1z"/>
</g>
<rect x="31.7" y="34.9" class="st1" width="20.6" height="23.6"/>
<path class="st2" d="M85.7,39.9H62.4c-1.4,0-2.5-1.1-2.5-2.5l0,0c0-1.4,1.1-2.5,2.5-2.5h23.4c1.4,0,2.5,1.1,2.5,2.5l0,0
	C88.2,38.8,87.1,39.9,85.7,39.9z"/>
<path class="st2" d="M85.7,51.8H62.4c-1.4,0-2.5-1.1-2.5-2.5l0,0c0-1.4,1.1-2.5,2.5-2.5h23.4c1.4,0,2.5,1.1,2.5,2.5l0,0
	C88.2,50.7,87.1,51.8,85.7,51.8z"/>
<path class="st2" d="M85.7,63.8H62.4c-1.4,0-2.5-1.1-2.5-2.5l0,0c0-1.4,1.1-2.5,2.5-2.5h23.4c1.4,0,2.5,1.1,2.5,2.5l0,0
	C88.2,62.6,87.1,63.8,85.7,63.8z"/>
<path class="st2" d="M85.7,75.7H62.4c-1.4,0-2.5-1.1-2.5-2.5l0,0c0-1.4,1.1-2.5,2.5-2.5h23.4c1.4,0,2.5,1.1,2.5,2.5l0,0
	C88.2,74.6,87.1,75.7,85.7,75.7z"/>
<rect x="31.7" y="64" class="st3" width="20.6" height="23.6"/>
</svg>
