<?xml version="1.0" encoding="utf-8"?>
<!-- Generator: Adobe Illustrator 23.0.1, SVG Export Plug-In . SVG Version: 6.00 Build 0)  -->
<svg version="1.1" id="图层_1" xmlns="http://www.w3.org/2000/svg" xmlns:xlink="http://www.w3.org/1999/xlink" x="0px" y="0px"
	 viewBox="0 0 120 120" style="enable-background:new 0 0 120 120;" xml:space="preserve">
<style type="text/css">
	.st0{fill:#595757;}
	.st1{fill:#EFBA6B;}
</style>
<g>
	<path class="st0" d="M45.5,93h-4.6c-6.1,0-11.1-5.9-11.1-13.1V41c0-7.3,5-13.1,11.1-13.1H75c6.1,0,11.1,5.9,11.1,13.1v35.5
		c0,1.1-0.9,2-2,2s-2-0.9-2-2V41c0-5-3.2-9.1-7.1-9.1H40.9c-3.9,0-7.1,4.1-7.1,9.1v38.8c0,5,3.2,9.1,7.1,9.1h4.6c1.1,0,2,0.9,2,2
		S46.6,93,45.5,93z"/>
</g>
<g>
	<path class="st0" d="M89.9,83.4H62.5l2.4-2.4c0.6-0.6,0.6-1.5,0-2.1c-0.6-0.6-1.5-0.6-2.1,0l-4.9,4.9c-0.1,0.1-0.2,0.3-0.3,0.5
		c0,0,0,0,0,0c-0.1,0.2-0.1,0.4-0.1,0.5s0,0.4,0.1,0.5c0,0,0,0,0,0c0.1,0.2,0.2,0.4,0.3,0.5l4.9,4.9c0.6,0.6,1.5,0.6,2.1,0
		c0.6-0.6,0.6-1.5,0-2.1l-2.4-2.4h27.4c0.8,0,1.5-0.7,1.5-1.5S90.8,83.4,89.9,83.4z"/>
</g>
<g>
	<path class="st1" d="M66.1,60.5c0-3.4-2-5-4.7-6.2l-2-0.8v-6.8c1.5,0.2,2.8,0.9,4,2l1.9-2.3c-1.5-1.5-3.6-2.6-5.9-2.8v-1.7
		c0-0.8-0.7-1.5-1.5-1.5s-1.5,0.7-1.5,1.5v1.8c-3.3,0.7-5.6,3.1-5.6,6.1c0,3.3,2.5,5.1,4.7,6l0.9,0.4v7.7c-1.7-0.4-3.3-1.3-4.5-2.5
		l-2.1,2.5c1.7,1.8,4.1,2.9,6.6,3.2v1.8c0,0.8,0.7,1.5,1.5,1.5s1.5-0.7,1.5-1.5v-1.7C63.6,66.5,66.1,63.8,66.1,60.5z M54.5,49.5
		c0-1.3,0.7-2.2,1.9-2.6v5.3C55.3,51.6,54.5,50.8,54.5,49.5z M59.4,63.9v-6.4c1.7,0.8,3,1.5,3,3.3C62.4,62.4,61.3,63.5,59.4,63.9z"
		/>
</g>
</svg>
