<?xml version="1.0" encoding="utf-8"?>
<!-- Generator: Adobe Illustrator 23.0.1, SVG Export Plug-In . SVG Version: 6.00 Build 0)  -->
<svg version="1.1" id="图层_1" xmlns="http://www.w3.org/2000/svg" xmlns:xlink="http://www.w3.org/1999/xlink" x="0px" y="0px"
	 viewBox="0 0 120 120" style="enable-background:new 0 0 120 120;" xml:space="preserve">
<style type="text/css">
	.st0{fill:#FFFFFF;}
</style>
<path class="st0" d="M60,110.3c-36.6,0-59.8-34-59.8-48.3v-1.7C0.2,46,23.4,12,60,12c37,0,59.7,33.5,59.8,48.3V62
	C119.7,76.8,97,110.3,60,110.3z M60,21C29.1,21,9.2,50.2,9.2,60.3V62c0,10.1,20,39.3,50.8,39.3c30.4,0,50.7-28,50.8-39.4v-1.7
	C110.7,49,90.4,21,60,21z M60,84.7c-13,0-23.5-10.5-23.5-23.5S47,37.7,60,37.7s23.5,10.5,23.5,23.5S73,84.7,60,84.7z M60,46.7
	c-8,0-14.5,6.5-14.5,14.5S52,75.7,60,75.7s14.5-6.5,14.5-14.5S68,46.7,60,46.7z"/>
</svg>
