<?xml version="1.0" encoding="utf-8"?>
<!-- Generator: Adobe Illustrator 23.0.1, SVG Export Plug-In . SVG Version: 6.00 Build 0)  -->
<svg version="1.1" id="图层_1" xmlns="http://www.w3.org/2000/svg" xmlns:xlink="http://www.w3.org/1999/xlink" x="0px" y="0px"
	 viewBox="0 0 120 120" style="enable-background:new 0 0 120 120;" xml:space="preserve">
<style type="text/css">
	.st0{fill:#333333;}
</style>
<g>
	<path class="st0" d="M87.1,92.7H27.7c-3.5,0-6.3-2.5-6.3-5.5V49.8c0-1.6,0.8-3.1,2.1-4.1l29.8-23.6c2.4-1.9,6-1.9,8.4,0l29.7,23.6
		c1.3,1.1,2.1,2.5,2.1,4.1v37.3C93.4,90.2,90.6,92.7,87.1,92.7L87.1,92.7z M57.5,26.2L27.7,49.8v37.3h59.5V49.8L57.5,26.2L57.5,26.2
		z M55.4,24.1L55.4,24.1L55.4,24.1z"/>
	<path class="st0" d="M60.6,83.4h-7.8V61.6c0-1.7,1.4-3.1,3.1-3.1h1.6c1.7,0,3.1,1.4,3.1,3.1V83.4z"/>
</g>
</svg>
