<?xml version="1.0" encoding="utf-8"?>
<!-- Generator: Adobe Illustrator 23.0.1, SVG Export Plug-In . SVG Version: 6.00 Build 0)  -->
<svg version="1.1" id="图层_1" xmlns="http://www.w3.org/2000/svg" xmlns:xlink="http://www.w3.org/1999/xlink" x="0px" y="0px"
	 viewBox="0 0 120 120" style="enable-background:new 0 0 120 120;" xml:space="preserve">
<style type="text/css">
	.st0{fill:#EFBA6B;}
</style>
<g>
	<path class="st0" d="M69.4,63.7H52.9c-15.3,0-27.8,11.1-27.8,24.8v1.5c0,7.2,12.3,7.2,27.8,7.2h16.5c14.9,0,27.8,0,27.8-7.2v-1.5
		C97.1,74.9,84.7,63.7,69.4,63.7z M61.1,61.4C61.1,61.4,61.1,61.4,61.1,61.4C61.1,61.4,61.1,61.4,61.1,61.4L61.1,61.4z M61.1,61.4
		C71,61.4,79,53.3,79,43.3c0-10-8-18.1-17.9-18.1c-9.9,0-17.9,8.1-17.9,18.1C43.3,53.3,51.3,61.4,61.1,61.4z"/>
</g>
</svg>
