<?xml version="1.0" encoding="utf-8"?>
<!-- Generator: Adobe Illustrator 23.0.1, SVG Export Plug-In . SVG Version: 6.00 Build 0)  -->
<svg version="1.1" id="图层_1" xmlns="http://www.w3.org/2000/svg" xmlns:xlink="http://www.w3.org/1999/xlink" x="0px" y="0px"
	 viewBox="0 0 120 120" style="enable-background:new 0 0 120 120;" xml:space="preserve">
<style type="text/css">
	.st0{fill:#EFBA6B;}
</style>
<path class="st0" d="M95.5,93h-1.8V49.1c0-2.3-1.6-4.2-3.6-4.2H78c-2,0-3.6,1.9-3.6,4.2V93h-3.5V29.3c0-2.4-1.6-4.3-3.6-4.3H55.2
	c-2,0-3.6,1.9-3.6,4.3V93h-3.5V69.2c0-2.3-1.6-4.2-3.6-4.2H32.4c-2,0-3.6,1.9-3.6,4.2V93H27c-1,0-1.8,0.9-1.8,2c0,1.1,0.8,2,1.8,2
	h68.5c1,0,1.8-0.9,1.8-2C97.2,93.9,96.5,93,95.5,93z"/>
</svg>
