<?xml version="1.0" encoding="utf-8"?>
<!-- Generator: Adobe Illustrator 23.0.1, SVG Export Plug-In . SVG Version: 6.00 Build 0)  -->
<svg version="1.1" id="图层_1" xmlns="http://www.w3.org/2000/svg" xmlns:xlink="http://www.w3.org/1999/xlink" x="0px" y="0px"
	 viewBox="0 0 120 120" style="enable-background:new 0 0 120 120;" xml:space="preserve">
<style type="text/css">
	.st0{fill:#333333;}
</style>
<path class="st0" d="M92.9,92.1h-1.8V46.5c0-2.1-1.6-3.8-3.6-3.8H75.5c-2,0-3.6,1.7-3.6,3.8v45.7h-3.5V28.6c0-2.2-1.6-3.9-3.6-3.9
	H52.6c-2,0-3.6,1.7-3.6,3.9v63.5h-3.5V64.5c0-2.1-1.6-3.8-3.6-3.8H29.8c-2,0-3.6,1.7-3.6,3.8v27.6h-1.8c-1.6,0-1.8,1.5-1.8,2.8
	c0,1,0.8,1.8,1.8,1.8h68.5c1,0,1.8-0.8,1.8-1.8C94.7,93.3,94.2,92.1,92.9,92.1z M77.3,48.5c0-0.1,0.1-0.2,0.1-0.2h8
	c0,0,0.1,0.1,0.1,0.2v43.7h-8.3V48.5z M54.5,30.6c0-0.2,0.1-0.3,0.1-0.3h8.1c0,0,0.1,0.1,0.1,0.3v61.5h-8.3V30.6z M31.7,66.5
	c0-0.1,0.1-0.2,0.1-0.2h8c0,0,0.1,0.1,0.1,0.2v25.6h-8.3L31.7,66.5z"/>
</svg>
