<?xml version="1.0" encoding="utf-8"?>
<!-- Generator: Adobe Illustrator 23.0.1, SVG Export Plug-In . SVG Version: 6.00 Build 0)  -->
<svg version="1.1" id="图层_1" xmlns="http://www.w3.org/2000/svg" xmlns:xlink="http://www.w3.org/1999/xlink" x="0px" y="0px"
	 viewBox="0 0 120 120" style="enable-background:new 0 0 120 120;" xml:space="preserve">
<style type="text/css">
	.st0{fill:#EFBA6B;}
</style>
<g>
	<path class="st0" d="M60.7,25.7c-19.9,0-36,16.1-36,36c0,19.9,16.1,36,36,36c19.9,0,36-16.1,36-36C96.7,41.8,80.6,25.7,60.7,25.7z
		 M73.8,63.3L62.2,74.8c-0.8,0.8-2.2,0.8-3.1,0L47.6,63.3c-0.8-0.8-0.8-2.2,0-3.1l11.6-11.6c0.8-0.8,2.2-0.8,3.1,0l11.6,11.6
		C74.6,61,74.6,62.4,73.8,63.3z"/>
</g>
</svg>
