<?xml version="1.0" encoding="utf-8"?>
<!-- Generator: Adobe Illustrator 23.0.1, SVG Export Plug-In . SVG Version: 6.00 Build 0)  -->
<svg version="1.1" id="图层_1" xmlns="http://www.w3.org/2000/svg" xmlns:xlink="http://www.w3.org/1999/xlink" x="0px" y="0px"
	 viewBox="0 0 120 120" style="enable-background:new 0 0 120 120;" xml:space="preserve">
<style type="text/css">
	.st0{fill:#444444;}
</style>
<g>
	<path class="st0" d="M71.4,61.7H54.9c-15.3,0-27.8,11.1-27.8,24.8v1.5c0,7.2,12.3,7.2,27.8,7.2h16.5c14.9,0,27.8,0,27.8-7.2v-1.5
		C99.1,72.9,86.7,61.7,71.4,61.7z M92,85.6C92,91,80.4,89,69.3,89H57c-11.6,0-22.7,2-22.7-3.3v-1.1C34.3,74.3,45.6,68,57,68h12.3
		C80.7,68,92,74.3,92,84.5V85.6z M63.1,59.4C63.1,59.4,63.1,59.4,63.1,59.4C63.1,59.4,63.1,59.4,63.1,59.4L63.1,59.4z M63.1,59.4
		C73,59.4,81,51.3,81,41.3c0-10-8-18.1-17.9-18.1c-9.9,0-17.9,8.1-17.9,18.1C45.3,51.3,53.3,59.4,63.1,59.4z M63.1,29.2
		c6.6,0,11.9,5.4,11.9,12.1c0,6.7-5.4,12.1-11.9,12.1c0,0,0,0,0,0h0c0,0,0,0,0,0c-6.6,0-12-5.4-12-12.1
		C51.2,34.6,56.6,29.2,63.1,29.2z"/>
</g>
</svg>
