<?xml version="1.0" encoding="utf-8"?>
<!-- Generator: Adobe Illustrator 23.0.1, SVG Export Plug-In . SVG Version: 6.00 Build 0)  -->
<svg version="1.1" id="图层_1" xmlns="http://www.w3.org/2000/svg" xmlns:xlink="http://www.w3.org/1999/xlink" x="0px" y="0px"
	 viewBox="0 0 120 120" style="enable-background:new 0 0 120 120;" xml:space="preserve">
<style type="text/css">
	.st0{fill:#333333;}
</style>
<g>
	<path class="st0" d="M85,21.7H40.9c-7.6,0-13.9,6.4-13.9,14.1v43.7c0,7.7,6.3,14.1,13.9,14.1H85c7.6,0,13.9-6.4,13.9-14.1V35.8
		C98.9,28.1,92.6,21.7,85,21.7z M92.2,62.8H80.6c-3.6,0-6.5-3-6.5-6.7c0-3.6,2.9-6.7,6.5-6.7h11.6V62.8z M92.2,43H80.6
		c-7.2,0-13,5.9-13,13.2c0,7.3,5.8,13.2,13,13.2h11.6v10.2c0,3.6-3.6,7.3-7.2,7.3H40.9c-3.6,0-7.1-3.7-7.1-7.3V35.8
		c0-3.6,3.3-7.2,6.9-7.2h44.2c3.6,0,7.4,3.6,7.4,7.2V43z M78.2,56.2L78.2,56.2c0,1.8,1.4,3.3,3.2,3.3c1.8,0,3.2-1.5,3.2-3.3v0
		c0-1.8-1.4-3.3-3.2-3.3S78.2,54.4,78.2,56.2z"/>
</g>
</svg>
