<?xml version="1.0" encoding="utf-8"?>
<!-- Generator: Adobe Illustrator 23.0.1, SVG Export Plug-In . SVG Version: 6.00 Build 0)  -->
<svg version="1.1" id="图层_1" xmlns="http://www.w3.org/2000/svg" xmlns:xlink="http://www.w3.org/1999/xlink" x="0px" y="0px"
	 viewBox="0 0 200 200" style="enable-background:new 0 0 200 200;" xml:space="preserve">
<style type="text/css">
	.st0{fill:#6F89A9;}
</style>
<path class="st0" d="M179.1,143.8c-12.4-10.8-21.2-39.3-21.2-72.9c0-25.4-16.3-46.9-38.9-54.8C117.4,7,109.5,0,100,0
	c-9.6,0-17.4,7-19,16.2C58.4,24,42.1,45.6,42.1,71c0,33.5-8.8,62.1-21.2,72.9c-6.9,6-10.9,14.7-10.9,23.9c0,10.7,8.6,19.4,19.3,19.4
	h57.9c0,10.7,2.2,12.9,12.9,12.9c10.7,0,12.9-2.2,12.9-12.9h57.9c10.7,0,19.3-8.7,19.3-19.4C190,158.6,186,149.8,179.1,143.8z
	 M36.6,173.3c-11.6,0-12.3-12.5-9.6-14.9C44.3,143.5,55,110,55,71c0-21.3,23.7-45.2,45-45.2s45,23.8,45,45.2
	c0,39,10.7,72.6,27.9,87.5c2.7,2.3,4.1,14.9-9.6,14.9H36.6z"/>
</svg>
