<?xml version="1.0" encoding="utf-8"?>
<!-- Generator: Adobe Illustrator 23.0.1, SVG Export Plug-In . SVG Version: 6.00 Build 0)  -->
<svg version="1.1" id="图层_1" xmlns="http://www.w3.org/2000/svg" xmlns:xlink="http://www.w3.org/1999/xlink" x="0px" y="0px"
	 viewBox="0 0 200 200" style="enable-background:new 0 0 200 200;" xml:space="preserve">
<style type="text/css">
	.st0{fill:#E4E7F4;}
</style>
<path class="st0" d="M153,122.9l-0.2,0.2c-1.2,1.3-1.7,3-1.4,4.7l7.1,42.9c1.8,10.9-9.5,19.5-19.2,14.1l-36.9-20.3
	c-1.4-0.8-3-0.8-4.4,0l-36.9,20.3c-9.7,5.4-21.1-3.2-19.2-14.1l7-42.8c0.3-2-0.3-3.7-1.5-5L17.5,92.4c-7.6-7.7-3.4-21.1,7.3-22.9
	l41.3-6.3c1.6-0.3,3-1.4,3.6-2.9l18.3-39.1c3-6.5,10.7-9.4,17.2-6.5c2.9,1.3,5.2,3.6,6.5,6.5l18.4,39.1c0.6,1.4,2.1,2.6,3.5,2.8
	l41.5,6.3c10.8,1.6,15,15.1,7.4,22.8L153,122.9L153,122.9z M173.8,83.8c0.7-0.7,0.3-2-0.5-2.1l-41.7-6.4c-5.5-1-10.2-4.7-12.6-9.8
	l-18.4-39.1c-0.4-0.8-1.2-0.8-1.5,0l-18.3,39c-2.3,5.2-7.1,8.9-12.8,9.9l-41.3,6.3c-0.8,0.1-1.2,1.5-0.5,2.2L56,114.2
	c4.1,3.9,5.9,9.7,5,15.5l-7.1,43c-0.2,1,0.6,1.6,1.2,1.3l36.9-20.4c5-2.8,11.1-2.8,16.1,0l36.9,20.4c0.6,0.3,1.4-0.3,1.2-1.4
	l-7.1-43.1c-0.8-5.7,0.9-11.4,5-15.3L173.8,83.8L173.8,83.8z"/>
</svg>
