<?xml version="1.0" encoding="utf-8"?>
<!-- Generator: Adobe Illustrator 23.0.1, SVG Export Plug-In . SVG Version: 6.00 Build 0)  -->
<svg version="1.1" id="图层_1" xmlns="http://www.w3.org/2000/svg" xmlns:xlink="http://www.w3.org/1999/xlink" x="0px" y="0px"
	 viewBox="0 0 120 120" style="enable-background:new 0 0 120 120;" xml:space="preserve">
<style type="text/css">
	.st0{fill:#EFBA6B;}
	.st1{fill:#595757;}
</style>
<g>
	<path class="st0" d="M62.7,52.1c0,0,0.1-0.1,0.1-0.1c1-1,0.9-2.7-0.1-3.6c-1-1-2.7-0.9-3.6,0.1c-0.9,1-0.9,2.5,0,3.5
		C60.1,53,61.7,53.1,62.7,52.1z M61,57.3c-1.4,0-2.6,1.3-2.6,3v12c0,1.7,1.1,3,2.6,3c1.4,0,2.6-1.3,2.6-3v-12
		C63.6,58.7,62.4,57.3,61,57.3z"/>
</g>
<g>
	<path class="st1" d="M61,28.4c-18.3,0-33.1,14.8-33.1,33.1c0,18.3,14.8,33.1,33.1,33.1s33.1-14.8,33.1-33.1S79.3,28.4,61,28.4z
		 M61,89.6c-15,0-28.1-13.1-28.1-28.1c0-15,13.1-28.1,28.1-28.1s28.1,13.1,28.1,28.1C89.1,76.5,76,89.6,61,89.6z"/>
</g>
</svg>
