<?xml version="1.0" encoding="utf-8"?>
<!-- Generator: Adobe Illustrator 23.0.1, SVG Export Plug-In . SVG Version: 6.00 Build 0)  -->
<svg version="1.1" id="图层_1" xmlns="http://www.w3.org/2000/svg" xmlns:xlink="http://www.w3.org/1999/xlink" x="0px" y="0px"
	 viewBox="0 0 120 120" style="enable-background:new 0 0 120 120;" xml:space="preserve">
<style type="text/css">
	.st0{fill:#595757;}
	.st1{fill:#EFBA6B;}
</style>
<g>
	<g>
		<path class="st0" d="M81.8,27.8H39.1c-6.6,0-12,5.3-12,11.9v42.3c0,6.6,5.4,11.9,12,11.9h42.6c6.6,0,12-5.3,12-11.9V39.8
			C93.7,33.2,88.4,27.8,81.8,27.8z M89.3,82.1c0,3.6-3.9,7.5-7.5,7.5H39.1c-3.6,0-7.5-3.9-7.5-7.5V39.8c0-3.6,3.9-7.5,7.5-7.5h42.6
			c3.6,0,7.5,3.9,7.5,7.5V82.1z"/>
	</g>
</g>
<g>
	<path class="st1" d="M78.1,60.4l-11-11c-0.2-0.2-0.4-0.2-0.6-0.2v5.8l6,6l-6,6v5.8c0.2,0,0.4-0.1,0.6-0.2l11-11
		C78.4,61.2,78.4,60.7,78.1,60.4z M42.8,60.4c-0.3,0.3-0.3,0.8,0,1.1l11,11c0.2,0.2,0.4,0.2,0.6,0.2v-5.8l-6-6l6-6v-5.8
		c-0.2,0-0.4,0.1-0.6,0.2L42.8,60.4z"/>
</g>
</svg>
