<?xml version="1.0" encoding="utf-8"?>
<!-- Generator: Adobe Illustrator 23.0.1, SVG Export Plug-In . SVG Version: 6.00 Build 0)  -->
<svg version="1.1" id="图层_1" xmlns="http://www.w3.org/2000/svg" xmlns:xlink="http://www.w3.org/1999/xlink" x="0px" y="0px"
	 viewBox="0 0 120 120" style="enable-background:new 0 0 120 120;" xml:space="preserve">
<style type="text/css">
	.st0{fill:#595757;}
	.st1{fill:#EFBA6B;}
</style>
<g>
	<path class="st0" d="M60.4,31.1C60.4,31.1,60.4,31.1,60.4,31.1C60.4,31.1,60.4,31.1,60.4,31.1L60.4,31.1z M89.7,44.4
		c-0.3-0.8-1-1.5-1.8-1.8L61.7,31.4c-0.4-0.2-0.9-0.3-1.3-0.3c-0.5,0-0.9,0.1-1.3,0.3L32.8,42.6c-1.7,0.7-2.5,2.6-1.8,4.3
		c0.3,0.8,1,1.5,1.8,1.8l26.2,10.7c0.8,0.3,1.8,0.3,2.6,0l26.2-10.7C89.5,48,90.4,46.1,89.7,44.4z M60.4,54.9l-22.7-9.3l22.7-9.7
		L83,45.6L60.4,54.9z"/>
</g>
<path class="st0" d="M32.3,62.5L59,74.2c0.7,0.5,1.5,0.6,2.3,0.2l27.1-11.9c0,0,0.1,0,0.1,0c1.2-0.5,1.7-1.9,1.1-3.1
	c-0.5-1.2-1.9-1.7-3.1-1.1L60.4,69.8L34.2,58.3c0,0,0,0,0,0c-1.2-0.5-2.6,0-3.1,1.2c0,0,0,0,0,0C30.6,60.7,31.1,62,32.3,62.5z"/>
<path class="st1" d="M86.5,73.8L60.3,85.3L34.1,73.8c-1.2-0.5-2.6,0-3.1,1.2c-0.5,1.2,0,2.6,1.2,3.1l27.1,11.9
	c0.5,0.2,0.9,0.2,1.4,0.1c0.2,0,0.3-0.1,0.5-0.1l27.1-11.9c1.1-0.5,1.7-1.8,1.2-3C89.1,73.9,87.7,73.3,86.5,73.8z"/>
</svg>
