<?xml version="1.0" encoding="utf-8"?>
<!-- Generator: Adobe Illustrator 23.0.1, SVG Export Plug-In . SVG Version: 6.00 Build 0)  -->
<svg version="1.1" id="图层_1" xmlns="http://www.w3.org/2000/svg" xmlns:xlink="http://www.w3.org/1999/xlink" x="0px" y="0px"
	 viewBox="0 0 120 120" style="enable-background:new 0 0 120 120;" xml:space="preserve">
<style type="text/css">
	.st0{fill:#EFBA6B;}
	.st1{fill:#595757;}
</style>
<path class="st0" d="M70.5,60.6c0.5,0,1-0.4,1-1v-2c0-0.5-0.4-1-1-1h-7.3l8-8.5c0.4-0.4,0.4-1,0-1.4l-1.3-1.4
	c-0.4-0.4-0.9-0.4-1.3,0l-8.8,9.5L51,45.4c-0.4-0.4-0.9-0.4-1.3,0l-1.3,1.3c-0.4,0.4-0.4,1,0,1.4l8,8.6h-7.3c-0.5,0-1,0.4-1,1v2
	c0,0.5,0.4,1,1,1h8.7v3.9h-8.7c-0.5,0-1,0.4-1,1v2c0,0.5,0.4,1,1,1h8.7v6.8c0,0.5,0.4,1,1,1h2c0.5,0,1-0.4,1-1v-6.8h8.8
	c0.5,0,1-0.4,1-1v-2c0-0.5-0.4-1-1-1h-8.8v-3.9L70.5,60.6L70.5,60.6z"/>
<path class="st1" d="M59.4,97.5c-0.3,0-0.5-0.1-0.7-0.1c-0.3-0.1-6.9-2.3-14.4-8c-10.3-7.6-16.7-17-16.7-28.9V36.1
	c0-1.1,0.7-2.1,1.7-2.5L58.5,24c0.6-0.2,1.3-0.2,1.9,0l30,9.6c1,0.4,1.7,1.4,1.7,2.5v24.4c0,11.9-5.6,21.3-16.1,29
	c-7.8,5.7-15.5,7.9-15.9,8C59.8,97.5,59.6,97.5,59.4,97.5L59.4,97.5z M31.3,37.3v23.4c0,22.4,23.7,31.6,28.1,33
	c2-0.7,10.1-3.5,15.8-7.7c8.6-7.3,13-15.1,13-25.3V37.4l-28.8-9.5L31.3,37.3L31.3,37.3z"/>
</svg>
