<?xml version="1.0" encoding="utf-8"?>
<!-- Generator: Adobe Illustrator 23.0.1, SVG Export Plug-In . SVG Version: 6.00 Build 0)  -->
<svg version="1.1" id="图层_1" xmlns="http://www.w3.org/2000/svg" xmlns:xlink="http://www.w3.org/1999/xlink" x="0px" y="0px"
	 viewBox="0 0 120 120" style="enable-background:new 0 0 120 120;" xml:space="preserve">
<style type="text/css">
	.st0{fill:#EFBA6B;}
	.st1{fill:#595757;}
</style>
<g>
	<g>
		<path class="st0" d="M86.5,84.3l-3.4-5.9c-1-1.8-3-2.9-5-2.9h-6.9c-2.1,0-4,1.1-5,2.9l-3.4,5.9c-1,1.8-1,4,0,5.8l3.4,5.9
			c1,1.8,3,2.9,5,2.9h6.9c2.1,0,4-1.1,5-2.9l3.4-5.9C87.6,88.3,87.6,86.1,86.5,84.3z M79.1,95.1h-8.9l-4.4-7.9l4.4-7.9h8.9l4.4,7.9
			L79.1,95.1z"/>
	</g>
</g>
<circle class="st0" cx="74.6" cy="87.2" r="2.9"/>
<g>
	<path class="st1" d="M57.2,32.5c-10.5,0-19,8.5-19,19s8.5,19,19,19s19-8.5,19-19S67.7,32.5,57.2,32.5z M57.2,65.9
		c-8.5,0-14.4-5.9-14.4-14.4s5.9-14.4,14.4-14.4S71.5,43,71.5,51.5S65.7,65.9,57.2,65.9z"/>
</g>
<path class="st1" d="M46.4,73.3c-1.5-0.8-2.6-1.5-3.8-2.6l-13.3,23c-1.4,2.3,0.3,5.3,3,5.3H63l-2.6-4.4l-26.4,0L46.4,73.3z"/>
</svg>
