<?xml version="1.0" encoding="utf-8"?>
<!-- Generator: Adobe Illustrator 23.0.1, SVG Export Plug-In . SVG Version: 6.00 Build 0)  -->
<svg version="1.1" id="图层_1" xmlns="http://www.w3.org/2000/svg" xmlns:xlink="http://www.w3.org/1999/xlink" x="0px" y="0px"
	 viewBox="0 0 120 120" style="enable-background:new 0 0 120 120;" xml:space="preserve">
<style type="text/css">
	.st0{fill:#595757;}
	.st1{fill:#EFBA6B;}
</style>
<g>
	<path class="st0" d="M60.7,22.8l-30,17.3v34.6l30,17.3l30-17.3V40.1L60.7,22.8z M86.5,72.2L60.7,87L34.8,72.2V42.7l25.9-14.8
		l25.9,14.8V72.2z"/>
</g>
<g>
	<path class="st1" d="M69.5,50.5L69.5,50.5c-0.9-0.9-2.2-0.9-3.1,0L58,58.9l-3.1-3.1c-0.9-0.9-2.2-0.9-3.1,0l0,0
		c-0.9,0.9-0.9,2.2,0,3.1l6.2,6.2l0,0l0,0l11.5-11.5C70.4,52.7,70.4,51.3,69.5,50.5z"/>
</g>
</svg>
