<?xml version="1.0" encoding="utf-8"?>
<!-- Generator: Adobe Illustrator 23.0.1, SVG Export Plug-In . SVG Version: 6.00 Build 0)  -->
<svg version="1.1" id="图层_1" xmlns="http://www.w3.org/2000/svg" xmlns:xlink="http://www.w3.org/1999/xlink" x="0px" y="0px"
	 viewBox="0 0 200 200" style="enable-background:new 0 0 200 200;" xml:space="preserve">
<style type="text/css">
	.st0{fill:#333333;}
</style>
<path class="st0" d="M37.5,86.7c-7.5,0-13.3,5.8-13.3,13.3c0,7.5,5.8,13.3,13.3,13.3s13.3-5.8,13.3-13.3
	C50.8,92.5,45,86.7,37.5,86.7z M100,86.7c-7.5,0-13.3,5.8-13.3,13.3c0,7.5,5.8,13.3,13.3,13.3c7.5,0,13.3-5.8,13.3-13.3
	C113.3,92.5,107.5,86.7,100,86.7z M162.5,86.7c-7.5,0-13.3,5.8-13.3,13.3c0,7.5,5.8,13.3,13.3,13.3s13.3-5.8,13.3-13.3
	C175.8,92.5,169.2,86.7,162.5,86.7z"/>
</svg>
