<?xml version="1.0" encoding="utf-8"?>
<!-- Generator: Adobe Illustrator 23.0.1, SVG Export Plug-In . SVG Version: 6.00 Build 0)  -->
<svg version="1.1" id="图层_1" xmlns="http://www.w3.org/2000/svg" xmlns:xlink="http://www.w3.org/1999/xlink" x="0px" y="0px"
	 viewBox="0 0 120 120" style="enable-background:new 0 0 120 120;" xml:space="preserve">
<style type="text/css">
	.st0{fill:#333333;}
</style>
<path class="st0" d="M118.22,56.09L91.68,37.19c-2.06-1.53-4.87-1.12-6.45,0.91c-0.62,0.77-0.89,1.74-0.89,2.79v38.23
	c0,3.7,4.11,6,7.34,3.7l26.61-18.91C120.55,61.6,120.55,57.91,118.22,56.09L118.22,56.09z M114.51,11.16H5.49
	C2.47,11.16,0,8.65,0,5.58S2.47,0,5.49,0h109.03c3.02,0,5.49,2.51,5.49,5.58S117.6,11.16,114.51,11.16z M114.51,120H5.49
	C2.47,120,0,117.49,0,114.42s2.47-5.58,5.49-5.58h109.03c3.02,0,5.49,2.51,5.49,5.58S117.6,120,114.51,120z M67.89,47.44H5.49
	C2.47,47.44,0,44.93,0,41.86c0-3.07,2.47-5.58,5.49-5.58h62.4c3.02,0,5.49,2.51,5.49,5.58C73.37,44.93,70.97,47.44,67.89,47.44z
	 M67.95,83.72H5.49C2.47,83.72,0,81.21,0,78.14c0-3.07,2.47-5.58,5.49-5.58h62.47c3.02,0,5.49,2.51,5.49,5.58v0.07
	C73.37,81.21,70.97,83.72,67.95,83.72L67.95,83.72z"/>
</svg>
