<?xml version="1.0" encoding="utf-8"?>
<!-- Generator: Adobe Illustrator 23.0.1, SVG Export Plug-In . SVG Version: 6.00 Build 0)  -->
<svg version="1.1" id="图层_1" xmlns="http://www.w3.org/2000/svg" xmlns:xlink="http://www.w3.org/1999/xlink" x="0px" y="0px"
	 viewBox="0 0 200 200" style="enable-background:new 0 0 200 200;" xml:space="preserve">
<style type="text/css">
	.st0{fill:#FFFFFF;}
</style>
<path class="st0" d="M109.8,70.1H49.8v10h60.1V70.1z M127.8,111.9h-78v10h78V111.9z M149.8,153.8h-100v10h100V153.8z"/>
<path class="st0" d="M138,10L128,0H40.3c-11.1,0-20,9-20,20V180c0,11.1,9,20,20,20h119.4c11.1,0,20-9,20-20V51.7L138,10z
	 M135.8,18.4h0.1l25.4,25.4v0h-25.5C135.8,43.8,135.8,18.4,135.8,18.4z M169.7,180c0,5.5-4.5,10-10,10H40.3c-5.5,0-10-4.5-10-10V20
	c0-5.5,4.5-10,10-10h87.5v41.7h41.9V180z"/>
</svg>
