<?xml version="1.0" encoding="utf-8"?>
<!-- Generator: Adobe Illustrator 23.0.1, SVG Export Plug-In . SVG Version: 6.00 Build 0)  -->
<svg version="1.1" id="图层_1" xmlns="http://www.w3.org/2000/svg" xmlns:xlink="http://www.w3.org/1999/xlink" x="0px" y="0px"
	 viewBox="0 0 120 120" style="enable-background:new 0 0 120 120;" xml:space="preserve">
<style type="text/css">
	.st0{fill:#919DAA;}
</style>
<path class="st0" d="M118.89,111.27L88.94,81.22c7.18-8.87,11.09-19.85,11.09-31.44c0-13.37-5.18-25.92-14.6-35.36
	S63.5-0.23,50.18-0.23s-25.83,5.2-35.24,14.65s-14.6,22-14.6,35.36s5.18,25.92,14.6,35.36s21.92,14.65,35.24,14.65
	c11.74,0,22.86-4.05,31.78-11.49l29.91,30.02c1.93,1.94,5.09,1.94,7.02,0C120.82,116.39,120.82,113.22,118.89,111.27z M50.18,89.85
	c-22,0-39.9-17.96-39.9-40.04s17.9-40.05,39.9-40.05s39.9,17.96,39.9,40.04S72.21,89.85,50.18,89.85z"/>
</svg>
