<?xml version="1.0" encoding="utf-8"?>
<!-- Generator: Adobe Illustrator 23.0.1, SVG Export Plug-In . SVG Version: 6.00 Build 0)  -->
<svg version="1.1" id="图层_1" xmlns="http://www.w3.org/2000/svg" xmlns:xlink="http://www.w3.org/1999/xlink" x="0px" y="0px"
	 viewBox="0 0 120 120" style="enable-background:new 0 0 120 120;" xml:space="preserve">
<style type="text/css">
	.st0{fill:#EDB259;}
</style> 
<g>
	<path class="st0" d="M60,0.1C26.9,0.1,0,27,0,60.1s26.9,60,60,60s60-26.9,60-60S93.1,0.1,60,0.1z M92.4,44.8L51.8,85.4
		c-0.8,0.8-2.2,0.7-3.1-0.2L46,82.4l0,0L27.8,64.3c-0.9-0.9-0.9-2.4,0-3.3l5-5c0.9-0.9,2.4-0.9,3.3,0l14.3,14.3l33.8-33.8
		c0.8-0.8,2.2-0.7,3.1,0.2l5,5C93.1,42.6,93.2,44,92.4,44.8z"/>
</g>
</svg>
