<?xml version="1.0" encoding="utf-8"?>
<!-- Generator: Adobe Illustrator 23.0.1, SVG Export Plug-In . SVG Version: 6.00 Build 0)  -->
<svg version="1.1" id="图层_1" xmlns="http://www.w3.org/2000/svg" xmlns:xlink="http://www.w3.org/1999/xlink" x="0px" y="0px"
	 viewBox="0 0 120 120" style="enable-background:new 0 0 120 120;" xml:space="preserve">
<style type="text/css">
	.st0{fill:#FFFFFF;}
</style>
<g>
	<path class="st0" d="M118.4,43.4c1.1-2,0.4-4.6-1.6-5.7s-4.6-0.4-5.7,1.6c-9.7,18.8-29,30.7-50.2,31C39.8,69.9,20.5,58,10.8,39.1
		c-1.1-2-3.7-2.7-5.7-1.6c-2,1.1-2.7,3.7-1.6,5.7C6.8,49.5,11,55,15.9,59.8l-7.5,7.5c-1.6,1.6-1.6,4.3,0,5.9c1.6,1.6,4.3,1.6,5.9,0
		l7.9-7.9c2.7,2,5.5,3.8,8.4,5.4L28.2,77c-0.1,0.2-0.2,0.4-0.2,0.6c-0.7,2.2,0.6,4.5,2.8,5.2s4.5-0.6,5.2-2.8l2.3-5.9
		c5.9,2.3,12.2,3.7,18.7,4.2v4.3c0,2.3,1.8,4.1,4.1,4.1s4.1-1.8,4.1-4.1v-4.3c6.2-0.5,12.2-1.8,17.9-3.9l2.1,5.6
		c0.8,2.1,3.2,3.2,5.3,2.4l0,0c2.1-0.8,3.2-3.2,2.4-5.3l-2.3-5.9c3.2-1.7,6.3-3.6,9.2-5.8l7.9,7.9c1.6,1.6,4.3,1.6,5.9,0
		c1.6-1.6,1.6-4.3,0-5.9l-7.4-7.5C111,55.1,115.2,49.6,118.4,43.4z"/>
</g>
</svg>
