<?xml version="1.0" encoding="utf-8"?>
<!-- Generator: Adobe Illustrator 23.0.1, SVG Export Plug-In . SVG Version: 6.00 Build 0)  -->
<svg version="1.1" id="图层_1" xmlns="http://www.w3.org/2000/svg" xmlns:xlink="http://www.w3.org/1999/xlink" x="0px" y="0px"
	 viewBox="0 0 120 120" style="enable-background:new 0 0 120 120;" xml:space="preserve">
<style type="text/css">
	.st0{fill:#595757;}
	.st1{fill:#EFBA6B;}
</style>
<path class="st0" d="M87.6,94h-53c-4.2,0-7.5-3.4-7.5-7.5v-53c0-4.1,3.4-7.5,7.5-7.5h53c4.2,0,7.5,3.4,7.5,7.5v53
	C95.2,90.6,91.8,94,87.6,94z M34.7,30.4c-1.7,0-3.1,1.4-3.1,3.1v53c0,1.7,1.4,3.1,3.1,3.1h53c1.7,0,3.1-1.4,3.1-3.1v-53
	c0-1.7-1.4-3.1-3.1-3.1L34.7,30.4L34.7,30.4z"/>
<path class="st1" d="M70.8,59.9c0.5,0,0.9-0.4,0.9-0.9v-1.8c0-0.5-0.4-0.9-0.9-0.9h-6.6l7.2-7.7c0.3-0.4,0.3-0.9,0-1.2l-1.1-1.2
	c-0.3-0.4-0.8-0.4-1.1,0l-8,8.6l-8-8.6c-0.3-0.4-0.8-0.4-1.1,0l-1.1,1.2c-0.3,0.4-0.3,0.9,0,1.2l7.2,7.8h-6.6
	c-0.5,0-0.9,0.4-0.9,0.9v1.8c0,0.5,0.4,0.9,0.9,0.9h7.9v3.5h-7.9c-0.5,0-0.9,0.4-0.9,0.9v1.8c0,0.5,0.4,0.9,0.9,0.9h7.9v6.1
	c0,0.5,0.4,0.9,0.9,0.9H62c0.5,0,0.9-0.4,0.9-0.9V67h7.9c0.5,0,0.9-0.4,0.9-0.9v-1.8c0-0.5-0.4-0.9-0.9-0.9h-7.9v-3.5L70.8,59.9
	L70.8,59.9z"/>
</svg>
