<?xml version="1.0" encoding="utf-8"?>
<!-- Generator: Adobe Illustrator 23.0.1, SVG Export Plug-In . SVG Version: 6.00 Build 0)  -->
<svg version="1.1" id="图层_1" xmlns="http://www.w3.org/2000/svg" xmlns:xlink="http://www.w3.org/1999/xlink" x="0px" y="0px"
	 viewBox="0 0 120 120" style="enable-background:new 0 0 120 120;" xml:space="preserve">
<style type="text/css">
	.st0{fill:#EFBA6B;}
	.st1{fill:#595757;}
</style>
<g>
	<path class="st0" d="M66.4,66.5l-0.2-0.3l-5.5-5.6v0l-5.5,5.5l-0.2,0.3l-0.3,0.3c-1.1,1.4-1.7,3.1-1.7,4.9c0,4.3,3.5,7.8,7.7,7.8
		s7.7-3.5,7.7-7.8C68.3,69.7,67.6,67.9,66.4,66.5z M60.6,76.2c-2.3,0-4.1-1.9-4.1-4.2c0-1.1,0.4-2.1,1.1-2.8l0.2-0.2l2.8-2.9
		l2.9,2.9l0.2,0.3l0.2,0.3c0.5,0.7,0.7,1.5,0.7,2.4C64.8,74.3,62.9,76.2,60.6,76.2z"/>
</g>
<g>
	<path class="st1" d="M87.1,26.7h-53c-4.2,0-7.5,3.4-7.5,7.5v53c0,4.1,3.4,7.5,7.5,7.5h53c4.2,0,7.5-3.4,7.5-7.5v-53
		C94.6,30,91.3,26.7,87.1,26.7z M90.2,87.2c0,1.7-1.4,3.1-3.1,3.1h-53c-1.7,0-3.1-1.4-3.1-3.1V51.7h59.2V87.2z M31,47.3V34.2
		c0-1.7,1.4-3.1,3.1-3.1v0h53c1.7,0,3.1,1.4,3.1,3.1v13.1H31z"/>
</g>
</svg>
