<?xml version="1.0" encoding="utf-8"?>
<!-- Generator: Adobe Illustrator 23.0.1, SVG Export Plug-In . SVG Version: 6.00 Build 0)  -->
<svg version="1.1" id="图层_1" xmlns="http://www.w3.org/2000/svg" xmlns:xlink="http://www.w3.org/1999/xlink" x="0px" y="0px"
	 viewBox="0 0 120 120" style="enable-background:new 0 0 120 120;" xml:space="preserve">
<style type="text/css">
	.st0{fill:#EFBA6B;}
	.st1{fill:#595757;}
</style>
<path class="st0" d="M2189.8,834.1h-26.5c-1.2,0-2.2-1-2.2-2.2c0,0,0-0.1,0-0.1l-0.5-9.1c0.1-1.1,1.9-1.9,3-2l4.8-0.4l1.4-4.1
	c-3.1-3.8-2.6-9.4,1.2-12.6c3.8-3.1,9.4-2.6,12.6,1.2c2.9,3.5,2.7,8.6-0.5,11.9l1.2,3.5l5.1,0.4c1.1,0.1,1.9,1,2,2l0.5,9.1
	c0.1,1.2-0.8,2.2-2,2.3C2189.9,834.1,2189.9,834.1,2189.8,834.1L2189.8,834.1z M2164.7,830.8h23.9l-0.3-6.9l-4.7-0.4
	c-0.9-0.1-1.6-0.7-1.9-1.5l-1.8-4.6c0,0,0-0.1,0-0.1c-0.5-1.8,0.3-2.7,0.7-3.1c1.1-0.9,1.8-2.2,1.8-3.7c0-2.5-3-5.6-5.5-5.6
	c-2.5,0-5.6,3-5.6,5.5c0,0,0,0.1,0,0.1c0,1.3,0.5,2.5,1.5,3.4c0.7,0.7,0.9,1.8,0.5,3l-2.1,5.1c-0.3,0.8-1,1.4-1.9,1.5l-4.3,0.4
	L2164.7,830.8z M2182.2,817.6L2182.2,817.6L2182.2,817.6z M2170.6,817L2170.6,817L2170.6,817z"/>
<g>
	<path class="st1" d="M2176.4,783.9c-19.3,0-35,15.7-35,35s15.7,35,35,35c19.3,0,35-15.7,35-35S2195.7,783.9,2176.4,783.9z
		 M2176.4,849.3c-16.8,0-30.4-13.6-30.4-30.4c0-16.8,13.6-30.4,30.4-30.4s30.4,13.6,30.4,30.4
		C2206.8,835.7,2193.1,849.3,2176.4,849.3z"/>
</g>
<path class="st0" d="M73.8,75.1H47.4c-1.2,0-2.2-1-2.2-2.2c0,0,0-0.1,0-0.1l-0.5-9.1c0.1-1.1,1.9-1.9,3-2l4.8-0.4l1.4-4.1
	c-3.1-3.8-2.6-9.4,1.2-12.6c3.8-3.1,9.4-2.6,12.6,1.2c2.9,3.5,2.7,8.6-0.5,11.9l1.2,3.5l5.1,0.4c1.1,0.1,1.9,1,2,2l0.5,9.1
	c0.1,1.2-0.8,2.2-2,2.3C73.9,75.1,73.9,75.1,73.8,75.1L73.8,75.1z M48.7,71.8h23.9l-0.3-6.9l-4.7-0.4c-0.9-0.1-1.6-0.7-1.9-1.5
	l-1.8-4.6c0,0,0-0.1,0-0.1c-0.5-1.8,0.3-2.7,0.7-3.1c1.1-0.9,1.8-2.2,1.8-3.7c0-2.5-3-5.6-5.5-5.6c-2.5,0-5.6,3-5.6,5.5
	c0,0,0,0.1,0,0.1c0,1.3,0.5,2.5,1.5,3.4c0.7,0.7,0.9,1.8,0.5,3l-2.1,5.1c-0.3,0.8-1,1.4-1.9,1.5L49,64.9L48.7,71.8z M66.2,58.6
	L66.2,58.6L66.2,58.6z M54.6,58L54.6,58L54.6,58z"/>
<g>
	<path class="st1" d="M60.4,24.9c-19.3,0-35,15.7-35,35c0,19.3,15.7,35,35,35c19.3,0,35-15.7,35-35C95.4,40.6,79.7,24.9,60.4,24.9z
		 M60.4,90.3C43.6,90.3,30,76.7,30,59.9s13.6-30.4,30.4-30.4s30.4,13.6,30.4,30.4S77.1,90.3,60.4,90.3z"/>
</g>
</svg>
