<?xml version="1.0" encoding="utf-8"?>
<!-- Generator: Adobe Illustrator 23.0.1, SVG Export Plug-In . SVG Version: 6.00 Build 0)  -->
<svg version="1.1" id="图层_1" xmlns="http://www.w3.org/2000/svg" xmlns:xlink="http://www.w3.org/1999/xlink" x="0px" y="0px"
	 viewBox="0 0 120 120" style="enable-background:new 0 0 120 120;" xml:space="preserve">
<style type="text/css">
	.st0{fill:#595757;}
	.st1{fill:#EFBA6B;}
</style>
<g>
	<path class="st0" d="M87.6,27.7h-53c-4.2,0-7.5,3.4-7.5,7.5v53c0,4.1,3.4,7.5,7.5,7.5h53c4.2,0,7.5-3.4,7.5-7.5v-53
		C95.1,31,91.8,27.7,87.6,27.7z M34.6,91.2c-1.7,0-3.1-1.4-3.1-3.1v-53c0-1.7,1.4-3.1,3.1-3.1v0h9.1v59.2H34.6z M90.7,88.1
		c0,1.7-1.4,3.1-3.1,3.1H47.7V32.1h39.9c1.7,0,3.1,1.4,3.1,3.1V88.1z"/>
</g>
<rect x="69.7" y="66.2" transform="matrix(-1.836970e-16 1 -1 -1.836970e-16 147.9626 4.4474)" class="st1" width="4.1" height="20"/>
<g>
	<polygon class="st1" points="81.8,48 73.7,48 73.7,40.1 69.8,40.1 69.8,48 61.8,48 61.8,52 69.8,52 69.8,60.1 73.6,60.1 73.6,52 
		81.8,52 	"/>
</g>
</svg>
