<?xml version="1.0" encoding="utf-8"?>
<!-- Generator: Adobe Illustrator 23.0.1, SVG Export Plug-In . SVG Version: 6.00 Build 0)  -->
<svg version="1.1" id="图层_1" xmlns="http://www.w3.org/2000/svg" xmlns:xlink="http://www.w3.org/1999/xlink" x="0px" y="0px"
	 viewBox="0 0 120 120" style="enable-background:new 0 0 120 120;" xml:space="preserve">
<style type="text/css">
	.st0{fill:#595757;}
	.st1{fill:#EFBA6B;}
</style>
<g>
	<g>
		<path class="st0" d="M93.3,81.2l-2.2,0.7l0.1-48.8c0-3-2.4-5.5-5.4-5.5H35.3c-3,0-5.4,2.4-5.4,5.5L29.8,82l-2.1-0.6l-1.2,4.2
			l34,10.1l34-10.1L93.3,81.2z M86.6,83.2l-26,7.8l-26.1-7.7V32.1h52.1V83.2z"/>
	</g>
</g>
<g>
	<path class="st1" d="M62.7,63.3H69v3.5h-6.2v4.9h-4.3v-4.9h-6.2v-3.5h6.2v-2h-6.2v-3.5h4.5l-5.3-10.1h4.1l5.2,9.5l5.1-9.5h4
		l-5.3,10.1h4.5v3.5h-6.2V63.3z"/>
</g>
</svg>
