<?xml version="1.0" encoding="utf-8"?>
<!-- Generator: Adobe Illustrator 23.0.1, SVG Export Plug-In . SVG Version: 6.00 Build 0)  -->
<svg version="1.1" id="图层_1" xmlns="http://www.w3.org/2000/svg" xmlns:xlink="http://www.w3.org/1999/xlink" x="0px" y="0px"
	 viewBox="0 0 120 120" style="enable-background:new 0 0 120 120;" xml:space="preserve">
<style type="text/css">
	.st0{fill:#595757;}
	.st1{fill:#EFBA6B;}
</style>
<g>
	<path class="st0" d="M49.6,52.7c-8.9,0-16,7.2-16,16c0,8.9,7.2,16,16,16c8.9,0,16-7.2,16-16C65.6,59.9,58.4,52.7,49.6,52.7z
		 M49.6,82.6c-7.7,0-13.9-6.2-13.9-13.9c0-7.7,6.2-13.9,13.9-13.9c7.7,0,13.9,6.2,13.9,13.9C63.4,76.4,57.2,82.6,49.6,82.6z"/>
</g>
<g>
	<path class="st1" d="M49.6,62.2c-3.6,0-6.5,2.9-6.5,6.5c0,3.6,2.9,6.5,6.5,6.5c3.6,0,6.5-2.9,6.5-6.5
		C56.1,65.1,53.1,62.2,49.6,62.2z M49.6,74.3c-3.1,0-5.6-2.5-5.6-5.6c0-3.1,2.5-5.6,5.6-5.6c3.1,0,5.6,2.5,5.6,5.6
		C55.2,71.8,52.7,74.3,49.6,74.3z"/>
</g>
<g>
	<path class="st0" d="M49.6,39.4c-16.2,0-29.4,13.1-29.4,29.4c0,16.2,13.1,29.4,29.4,29.4c16.2,0,29.4-13.1,29.4-29.4
		C78.9,52.5,65.8,39.4,49.6,39.4z M49.6,94.1c-14,0-25.4-11.4-25.4-25.4c0-14,11.4-25.4,25.4-25.4c14,0,25.4,11.4,25.4,25.4
		C74.9,82.7,63.6,94.1,49.6,94.1z"/>
</g>
<circle class="st1" cx="89.7" cy="30.4" r="1.6"/>
<circle class="st1" cx="96" cy="34.6" r="1.6"/>
<polygon class="st1" points="87.1,46.9 85.3,46.6 89.1,30.8 90,30.9 "/>
<polygon class="st1" points="94.1,47.7 92.3,47.4 95.5,34.3 96.5,34.4 "/>
<g>
	<g>
		<path class="st0" d="M69.6,97.8L69.6,97.8l-21.5,0.3l9.3-3.8c0.2,0,9.9-2.8,14.4-12.3c3.7-4.6,2.1-16.2,9.3-24.7
			c-0.6-1.2-0.8-2.5-0.8-3.9c0-5.1,4.1-9.2,9.1-9.2s9.1,4.1,9.1,9.2c0,0.3,0,0.7-0.1,1.1C97.8,62,93.9,96.2,69.6,97.8L69.6,97.8z
			 M84.1,59.7c-0.2,0.2-0.4,0.3-0.5,0.5c-5.5,9.2-7,17.9-7,18.1l-1.7,3.9l-0.5,0.5c-2.5,6-8.9,9.8-15.1,12.6l10-0.8
			c21.8-2.4,24.8-36.2,25.1-40.4l0-0.1c0-0.4,0.1-0.7,0-0.9c-0.2-2.4-2-4.4-4.3-4.8c-2.7-0.4-5,1.3-5.7,3.7c-0.2,0.7-0.2,1.5,0,2.2
			l0.6,2.2c0.2,0.8,0.2,1.6-0.2,2.3c0,0.1-0.1,0.2-0.2,0.2L84.1,59.7z"/>
	</g>
</g>
</svg>
