<?xml version="1.0" encoding="utf-8"?>
<!-- Generator: Adobe Illustrator 23.0.1, SVG Export Plug-In . SVG Version: 6.00 Build 0)  -->
<svg version="1.1" id="图层_1" xmlns="http://www.w3.org/2000/svg" xmlns:xlink="http://www.w3.org/1999/xlink" x="0px" y="0px"
	 viewBox="0 0 120 120" style="enable-background:new 0 0 120 120;" xml:space="preserve">
<style type="text/css">
	.st0{fill:#EFBA6B;}
	.st1{fill:#595757;}
</style>
<g>
	<path class="st0" d="M70.1,60.7c0.5,0,0.9-0.4,0.9-0.9v-1.7c0-0.5-0.4-0.9-0.9-0.9h-6.5l7.1-7.6c0.3-0.3,0.3-0.9,0-1.2l-1.1-1.2
		c-0.3-0.3-0.8-0.3-1.1,0l-7.8,8.4l-7.8-8.4c-0.3-0.3-0.8-0.3-1.1,0l-1.1,1.2c-0.3,0.3-0.3,0.9,0,1.2l7.1,7.6h-6.5
		c-0.5,0-0.9,0.4-0.9,0.9v1.7c0,0.5,0.4,0.9,0.9,0.9h7.7v3.4h-7.7c-0.5,0-0.9,0.4-0.9,0.9v1.7c0,0.5,0.4,0.9,0.9,0.9h7.7v6
		c0,0.5,0.4,0.9,0.9,0.9h1.7c0.5,0,0.9-0.4,0.9-0.9v-6h7.8c0.5,0,0.9-0.4,0.9-0.9v-1.7c0-0.5-0.4-0.9-0.9-0.9h-7.8v-3.5L70.1,60.7
		L70.1,60.7z"/>
	<path class="st1" d="M94.1,51.4c2.2-1.5,2.3-2.7,2.3-4.6v-14c0-3.8-3.1-7-7-7H31.8c-3.8,0-7,3.1-7,7v13.9c0,2.1,0.1,3.5,2.3,4.6
		c3.2,1.5,7,4.5,7,9.3c0,6.3-3.9,8.3-6.8,9.3c-2.1,1.3-2.5,3.4-2.5,4.7v13.9c0,3.8,3.1,7,7,7h35.5c1.3,0,2.3-1,2.3-2.3
		c0-1.3-1.1-1.9-2.4-1.9H34.1c-3.3,0-5-2-5.1-5.7V73.8c5.4-1.9,9.3-7,9.3-13.1s-3.9-11.4-9.3-13.3V34.9c0-2.6,2.8-4.8,5.3-4.8h52.9
		c2.6,0,5.3,2.3,5.3,4.8v12.5c-5.4,1.9-9.3,7.2-9.3,13.3s3.5,11,8.9,13v12.5c0,3.7-2,5-5.2,5h-6.5c-1.3,0-2.1,0.8-2.1,2.1
		c0,1.3,1,2.3,2.3,2.3h8.8c3.8,0,7-3.1,7-7V74.6c0-2.5-0.6-3.4-2.3-4.6c-5.1-2.6-7-4.9-7-9.3C87.1,56.4,88.9,54.2,94.1,51.4
		L94.1,51.4z"/>
</g>
</svg>
