<?xml version="1.0" encoding="utf-8"?>
<!-- Generator: Adobe Illustrator 23.0.1, SVG Export Plug-In . SVG Version: 6.00 Build 0)  -->
<svg version="1.1" id="图层_1" xmlns="http://www.w3.org/2000/svg" xmlns:xlink="http://www.w3.org/1999/xlink" x="0px" y="0px"
	 viewBox="0 0 120 120" style="enable-background:new 0 0 120 120;" xml:space="preserve">
<style type="text/css">
	.st0{fill:#EFBA6B;}
	.st1{fill:#595757;}
</style>
<g>
	<rect x="59.1" y="36" transform="matrix(0.7071 0.7071 -0.7071 0.7071 60.739 -25.7267)" class="st0" width="4.6" height="48.8"/>
	<g>
		<path class="st1" d="M60.7,31.1c7.1,0,13.6,2.6,18.6,6.8l3.2-3.2c-5.9-5.1-13.5-8.1-21.8-8.1c-18.4,0-33.4,15-33.4,33.4
			c0,8.3,3.1,16,8.1,21.8l3.2-3.2c-4.2-5-6.8-11.5-6.8-18.6C31.8,44,44.7,31.1,60.7,31.1z M87.9,40.5l-3.3,3.3
			c3.1,4.6,4.9,10.1,4.9,16.1c0,15.9-12.9,28.8-28.8,28.8c-6,0-11.5-1.8-16.1-4.9l-3.3,3.3c5.5,3.9,12.2,6.2,19.4,6.2
			c18.4,0,33.4-15,33.4-33.4C94.1,52.7,91.8,46,87.9,40.5z"/>
	</g>
	<g>
		<path class="st1" d="M57.4,51.6c0,0.7-0.1,1.1-0.6,1.3c-0.5,0.2-1.2,0.3-2.3,0.2c-0.1-0.4-0.3-1-0.4-1.3c0.8,0,1.5,0,1.8,0
			c0.2,0,0.3-0.1,0.3-0.3v-4.1h-3v7.3h-1.3v-7.3h-2.9v5.7h-1.3v-7h4.2v-2.1c-1.7,0.1-3.4,0.1-5,0.2c0-0.4-0.2-0.9-0.3-1.2
			c3.9-0.1,8.5-0.3,11.3-0.8l0.5,1.2c-1.5,0.2-3.3,0.4-5.2,0.5v2.2h4.4V51.6z"/>
	</g>
	<g>
		<path class="st1" d="M77.8,70.5c-0.5,1.7-1.3,3.1-2.4,4.1c0.9,0.6,2,1,3.2,1.3c-0.3,0.3-0.6,0.8-0.8,1.1c-1.3-0.4-2.4-0.9-3.3-1.6
			c-1,0.7-2.1,1.2-3.3,1.6c-0.1-0.3-0.4-0.8-0.6-1.1c0,0.4-0.2,0.6-0.4,0.8c-0.4,0.2-0.9,0.2-1.8,0.2c0-0.3-0.2-0.9-0.3-1.2
			c0.5,0,1,0,1.2,0c0.2,0,0.2-0.1,0.2-0.3v-3.1h-1.8c-0.1,1.6-0.4,3.4-0.9,4.7c-0.2-0.2-0.8-0.5-1.1-0.6c0.9-1.9,0.9-4.7,0.9-6.8v-5
			h4.1v10.8c0,0.1,0,0.3,0,0.4c1.1-0.3,2.1-0.7,3-1.3c-0.8-0.8-1.5-1.8-2-3l0.4-0.2h-1v-1.2h5.8l0.2,0L77.8,70.5z M69.4,71.1V69
			h-1.8v0.6c0,0.5,0,1,0,1.5H69.4z M67.7,65.8v2h1.8v-2H67.7z M73.4,66.2c0,1.3-0.3,2.8-2,3.8c-0.2-0.3-0.6-0.8-0.8-1
			c1.5-0.8,1.7-1.9,1.7-2.8v-1.5h4.5v3.1c0,0.4,0,0.5,0.2,0.5h0.7c0.2,0,0.4,0,0.6-0.1c0,0.3,0.1,0.8,0.1,1.1
			c-0.2,0.1-0.5,0.1-0.7,0.1h-0.8c-1.1,0-1.3-0.5-1.3-1.7v-1.9h-2.1V66.2z M72.7,71.4c0.4,0.9,1,1.7,1.8,2.4
			c0.7-0.7,1.3-1.5,1.7-2.4H72.7z"/>
	</g>
</g>
</svg>
