<?xml version="1.0" encoding="utf-8"?>
<!-- Generator: Adobe Illustrator 23.0.1, SVG Export Plug-In . SVG Version: 6.00 Build 0)  -->
<svg version="1.1" id="图层_1" xmlns="http://www.w3.org/2000/svg" xmlns:xlink="http://www.w3.org/1999/xlink" x="0px" y="0px"
	 viewBox="0 0 120 120" style="enable-background:new 0 0 120 120;" xml:space="preserve">
<style type="text/css">
	.st0{fill:#595757;}
	.st1{fill:#EFBA6B;}
</style>
<g>
	<path class="st0" d="M61.2,27.5c-18.8,0-34,15.2-34,34c0,18.8,15.2,34,34,34c18.8,0,34-15.2,34-34C95.2,42.8,80,27.5,61.2,27.5z
		 M61.2,91.5c-16.6,0-30-13.4-30-30c0-16.6,13.4-30,30-30c16.6,0,30,13.4,30,30C91.2,78.1,77.8,91.5,61.2,91.5z"/>
</g>
<g>
	<polygon class="st1" points="59.9,64.8 59.9,46.9 55.8,46.9 55.8,68.9 73.8,68.9 73.8,64.8 	"/>
</g>
</svg>
