<?xml version="1.0" encoding="utf-8"?>
<!-- Generator: Adobe Illustrator 23.0.1, SVG Export Plug-In . SVG Version: 6.00 Build 0)  -->
<svg version="1.1" id="图层_1" xmlns="http://www.w3.org/2000/svg" xmlns:xlink="http://www.w3.org/1999/xlink" x="0px" y="0px"
	 viewBox="0 0 120 120" style="enable-background:new 0 0 120 120;" xml:space="preserve">
<style type="text/css">
	.st0{fill:#595757;}
	.st1{fill:#EFBA6B;}
</style>
<path class="st0" d="M86.9,91.6c2,0,3.9-2.1,3.9-4.3l-2.6-52.4c0-2.7-1.7-4.7-3.8-4.7H37.2c-2.5,0-3.7,2.1-3.8,4.4l-2.7,52
	c0,2.4,1.8,5,3.9,5H86.9z M86.9,95.5H34.6c-4.3,0-7.8-3.9-7.8-8.7l2.6-52.2c0-4.8,3.5-8.7,7.8-8.7h47.1c4.3,0,7.7,3.8,7.8,8.5
	l2.6,52.4C94.8,91.6,91.2,95.5,86.9,95.5z"/>
<path class="st1" d="M71.1,47.3c0-1.3,0.9-2.6,2.3-2.6s2,1.1,2,2.4c0,8.1-6.6,14.6-14.6,14.6s-14.6-6.6-14.6-14.6
	c0-1.3,0.5-2.4,1.9-2.4s2.3,0.8,2.3,2.4c0.1,6.1,5,10.7,10.4,10.7S71.2,53.7,71.1,47.3z"/>
</svg>
