<?xml version="1.0" encoding="utf-8"?>
<!-- Generator: Adobe Illustrator 23.0.1, SVG Export Plug-In . SVG Version: 6.00 Build 0)  -->
<svg version="1.1" id="图层_1" xmlns="http://www.w3.org/2000/svg" xmlns:xlink="http://www.w3.org/1999/xlink" x="0px" y="0px"
	 viewBox="0 0 120 120" style="enable-background:new 0 0 120 120;" xml:space="preserve">
<style type="text/css">
	.st0{fill:#595757;}
	.st1{fill:#EFBA6B;}
</style>
<g>
	<path class="st0" d="M90.1,69.7C89.7,52,76.7,38.6,60.8,38.6C44.9,38.6,32,52,31.5,69.7c-3.4,0.9-6,6.9-6,11.7v0.4
		c0,5.5,3.4,9.9,7.5,9.9h55.6c4.1,0,7.5-4.5,7.5-9.9v-0.4C96.1,76.7,93.6,70.7,90.1,69.7z M60.8,42.3c13.6,0,25.5,12,26.1,27.2H34.8
		C35.4,54.3,47.2,42.3,60.8,42.3z M92.7,81.9c0,3-1.5,6.1-4,6.1H33c-2.5,0-4.3-3.1-4.3-6.1v-0.5c0-3,1.5-8.1,4.3-8.1h0.1
		c0.1,0,0.2,0,0.4,0c0.1,0,0.2,0,0.3,0h54c0.1,0,0.2,0,0.3,0c0.1,0,0.3,0,0.4,0h0.1c2.4,0,4,5.1,4,8.1V81.9z"/>
</g>
<g>
	<path class="st1" d="M60.7,28.2c-3.8,0-7,3.2-7,7.1c0,3.9,3.2,7.1,7,7.1c3.8,0,7-3.2,7-7C67.7,31.4,64.5,28.2,60.7,28.2z
		 M60.7,38.6c-2.1,0-3.7-1.3-3.7-3.4c0-2.1,1.6-3.7,3.7-3.7c2.1,0,3.7,1.6,3.7,3.7C64.3,37.3,62.7,38.6,60.7,38.6z"/>
</g>
</svg>
