<?xml version="1.0" encoding="utf-8"?>
<!-- Generator: Adobe Illustrator 23.0.1, SVG Export Plug-In . SVG Version: 6.00 Build 0)  -->
<svg version="1.1" id="图层_1" xmlns="http://www.w3.org/2000/svg" xmlns:xlink="http://www.w3.org/1999/xlink" x="0px" y="0px"
	 viewBox="0 0 120 120" style="enable-background:new 0 0 120 120;" xml:space="preserve">
<style type="text/css">
	.st0{fill:#595757;}
	.st1{fill:#EFBA6B;}
</style>
<g>
	<g>
		<path class="st0" d="M83.6,41.7h-4.5v-3.2c0-6.5-4.8-11.8-10.7-11.8H53c-5.9,0-10.7,5.3-10.7,11.8v3.2h-4.7
			c-6.1,0-11,5.5-11.1,12.2v28.6c0,6.7,5,12.2,11.1,12.2h45.9c6.1,0,11-5.5,11-12.2V53.9C94.6,47.2,89.7,41.7,83.6,41.7z M46.8,38.5
			c-0.1-4.2,3.1-7.9,6.3-7.9h15.4c3.1,0,6.1,3.1,6.1,7.9v3.2H46.8V38.5z M90.5,82.5c0,3.7-3.6,7.8-6.9,7.8H37.7
			c-3.3,0-7-4.1-7.1-7.8V53.9c0-3.7,3.2-8.3,6.5-8.3H83c3.3,0,7.5,3.4,7.5,8.3V82.5z"/>
	</g>
	<rect x="41.7" y="58.7" class="st1" width="37.7" height="4.4"/>
</g>
</svg>
