<?xml version="1.0" encoding="utf-8"?>
<!-- Generator: Adobe Illustrator 23.0.1, SVG Export Plug-In . SVG Version: 6.00 Build 0)  -->
<svg version="1.1" id="图层_1" xmlns="http://www.w3.org/2000/svg" xmlns:xlink="http://www.w3.org/1999/xlink" x="0px" y="0px"
	 viewBox="0 0 120 120" style="enable-background:new 0 0 120 120;" xml:space="preserve">
<style type="text/css">
	.st0{fill:#EFBA6B;}
</style>
<g>
	<path class="st0" d="M66.9,62.3c0-13.3,10.8-12.4,10.8-12.4h19.2V37.2h0c0-6.2-5.3-11.5-11.5-11.5h-49c-6.2,0-11.5,5.3-11.5,11.5
		v49c0,6.2,5.3,11.5,11.5,11.5h48.8c6.2,0,11.5-5.3,11.5-11.5V74H76.9C76.9,73.8,66.9,74.7,66.9,62.3z M80,53.2
		c0,0.2-8.4-0.4-8.4,8.9c0,8.6,7.7,7.8,7.7,7.8H97V53.2H80z M81.5,63.8c-0.9,0.4-2,0.4-2.9,0c-0.9-0.4-1.5-1.6-1.5-2.7
		c0.2-1.6,1.5-2.9,3.1-2.9c1.5,0,2.9,1.3,2.9,2.9C83.1,62.3,82.4,63.2,81.5,63.8z"/>
</g>
</svg>
