<?xml version="1.0" encoding="utf-8"?>
<!-- Generator: Adobe Illustrator 23.0.1, SVG Export Plug-In . SVG Version: 6.00 Build 0)  -->
<svg version="1.1" id="图层_1" xmlns="http://www.w3.org/2000/svg" xmlns:xlink="http://www.w3.org/1999/xlink" x="0px" y="0px"
	 viewBox="0 0 200 200" style="enable-background:new 0 0 200 200;" xml:space="preserve">
<style type="text/css">
	.st0{fill:#E4E7F4;}
</style>
<g>
	<path class="st0" d="M190.9,90.9c-5,0-9.1,4.1-9.1,9.1c0,45-36.8,81.8-81.8,81.8S18.2,145,18.2,100S55,18.2,100,18.2
		c5,0,9.1-4.1,9.1-9.1S105,0,100,0C45,0,0,45,0,100s45,100,100,100s100-45,100-100C200,95,195.9,90.9,190.9,90.9z M140,27.3
		l17.7,2.3L93.6,93.6c-3.6,3.6-3.6,9.1,0,12.7c1.8,1.8,4.1,2.7,6.4,2.7s4.5-0.9,6.4-2.7l64.1-64.1l2.3,17.7c0.5,4.5,4.5,8.2,9.1,8.2
		h1.4c5-0.5,8.6-5,7.7-10l-3.6-29.5c-0.9-8.2-7.7-15-15.9-15.9l-29.5-3.6c-5-0.5-9.5,2.7-10,7.7S135,26.4,140,27.3z"/>
</g>
</svg>
