<?xml version="1.0" encoding="utf-8"?>
<!-- Generator: Adobe Illustrator 23.0.1, SVG Export Plug-In . SVG Version: 6.00 Build 0)  -->
<svg version="1.1" id="图层_1" xmlns="http://www.w3.org/2000/svg" xmlns:xlink="http://www.w3.org/1999/xlink" x="0px" y="0px"
	 viewBox="0 0 200 200" style="enable-background:new 0 0 200 200;" xml:space="preserve">
<style type="text/css">
	.st0{fill:#E4E7F4;}
</style>
<path class="st0" d="M35.4,69.8V35.4h34.5c2.8,0,5.1-2.3,5.1-5.1v-6.1c0-2.8-2.3-5.1-5.1-5.1H23c-2.1,0-3.9,1.8-3.9,3.9v46.8
	c0,2.8,2.3,5.1,5.1,5.1h6.1C33.1,74.9,35.4,72.6,35.4,69.8z M130.6,35.4H165v34.5c0,2.8,2.3,5.1,5.1,5.1h6.1c2.8,0,5.1-2.3,5.1-5.1
	V23.1c0-2.1-1.8-3.9-3.9-3.9h-46.7c-2.8,0-5.1,2.3-5.1,5.1v6.1C125.5,33.1,127.8,35.4,130.6,35.4z M69.8,165.1H35.4v-34.5
	c0-2.8-2.3-5.1-5.1-5.1h-6.1c-2.8,0-5.1,2.3-5.1,5.1v46.8c0,2.1,1.8,3.9,3.9,3.9h46.8c2.8,0,5.1-2.3,5.1-5.1v-6.1
	C74.9,167.3,72.6,165.1,69.8,165.1L69.8,165.1z M165,130.6v34.5h-34.5c-2.8,0-5.1,2.3-5.1,5.1v6.1c0,2.8,2.3,5.1,5.1,5.1h46.8
	c2.1,0,3.9-1.8,3.9-3.9v-46.7c0-2.8-2.3-5.1-5.1-5.1h-6.1C167.3,125.6,165,127.8,165,130.6z"/>
</svg>
