<?xml version="1.0" encoding="utf-8"?>
<!-- Generator: Adobe Illustrator 23.0.1, SVG Export Plug-In . SVG Version: 6.00 Build 0)  -->
<svg version="1.1" id="图层_1" xmlns="http://www.w3.org/2000/svg" xmlns:xlink="http://www.w3.org/1999/xlink" x="0px" y="0px"
	 viewBox="0 0 120 120" style="enable-background:new 0 0 120 120;" xml:space="preserve">
<style type="text/css">
	.st0{fill:#595757;}
	.st1{fill:#EFBA6B;}
</style>
<path class="st0" d="M85.2,42.5c-1.3-3.1-3.2-5.9-5.6-8.3c-2.4-2.4-5.2-4.3-8.3-5.6c-3.2-1.4-6.7-2.1-10.2-2.1s-7,0.7-10.2,2.1
	c-3.1,1.3-5.9,3.2-8.3,5.6c-2.4,2.4-4.3,5.2-5.6,8.3c-1.4,3.2-2.1,6.7-2.1,10.2c0,4.9,1.4,9.7,4,13.9c2.3,3.7,6.4,6.7,10.2,8.8v7.9
	c0,3.5,0.4,6.8,2.9,9.3c2.5,2.5,5.8,3.9,9.3,3.9s6.8-1.4,9.3-3.9c2.5-2.5,2.9-5.8,2.9-9.3v-7.9c3.7-2.2,7.9-5.2,10.2-8.8
	c2.6-4.2,4-9,4-13.9C87.2,49.2,86.5,45.7,85.2,42.5z M61,93.1c-4.8,0-8.8-4.9-8.8-9.8V78h17.5v5.4C69.7,88.2,65.8,93.1,61,93.1z
	 M71.9,72.2c-0.7,0.4-2.2,1.1-2.2,1.9v0.4H52.2v-0.4c0-0.8-1.5-1.6-2.2-1.9C43.7,68.5,38.1,61,38.1,52.7c0-12.1,10.8-22.9,22.9-22.9
	s22.9,10.8,22.9,22.9C83.8,61,78.9,67.9,71.9,72.2z"/>
<g>
	<path class="st1" d="M70.8,45.3L70.8,45.3c-0.9-0.9-2.2-0.9-3.1,0l-8.4,8.4l-3.1-3.1c-0.9-0.9-2.2-0.9-3.1,0l0,0
		c-0.9,0.9-0.9,2.2,0,3.1l6.2,6.2l0,0l0,0l11.5-11.5C71.7,47.5,71.7,46.1,70.8,45.3z"/>
</g>
</svg>
