<?xml version="1.0" encoding="utf-8"?>
<!-- Generator: Adobe Illustrator 23.0.1, SVG Export Plug-In . SVG Version: 6.00 Build 0)  -->
<svg version="1.1" id="图层_1" xmlns="http://www.w3.org/2000/svg" xmlns:xlink="http://www.w3.org/1999/xlink" x="0px" y="0px"
	 viewBox="0 0 120 120" style="enable-background:new 0 0 120 120;" xml:space="preserve">
<style type="text/css">
	.st0{fill:#202028;}
</style>
<path class="st0" d="M99.8,120H53.2C42,120,33,110.7,33,99.3V51.4c0-11.4,9-20.7,20.2-20.7h46.7C111,30.7,120,40,120,51.4v47.9
	C120,110.7,111,120,99.8,120z M53.2,40.1c-6.1,0-11,5.1-11,11.3v47.9c0,6.2,4.9,11.3,11,11.3h46.7c6.1,0,11-5.1,11-11.3V51.4
	c0-6.2-4.9-11.3-11-11.3L53.2,40.1L53.2,40.1z M22.9,89.3h-3.4c-10.8,0-19.5-9-19.5-20V20.1C0,9,8.7,0,19.5,0h47.9
	C78.3,0,87,9,87,20.1c0,2.6-2,4.7-4.5,4.8s-4.6-2-4.6-4.6v-0.1c0-5.9-4.6-10.6-10.4-10.6h-48c-5.7,0-10.4,4.8-10.4,10.6v49.2
	c0,5.9,4.6,10.6,10.4,10.7h3.4c2.5,0,4.6,2.1,4.6,4.7C27.5,87.2,25.5,89.3,22.9,89.3z"/>
</svg>
