<?xml version="1.0" encoding="utf-8"?>
<!-- Generator: Adobe Illustrator 23.0.1, SVG Export Plug-In . SVG Version: 6.00 Build 0)  -->
<svg version="1.1" id="图层_1" xmlns="http://www.w3.org/2000/svg" xmlns:xlink="http://www.w3.org/1999/xlink" x="0px" y="0px"
	 viewBox="0 0 120 120" style="enable-background:new 0 0 120 120;" xml:space="preserve">
<style type="text/css">
	.st0{fill:#595757;}
	.st1{fill:#EFBA6B;}
</style>
<path class="st0" d="M95.2,60.3c-0.3-2.4-4-2-4,0.4c0,14.8-14.1,29-29,29c-14.8,0-29-14.1-29-29c0-14.8,14.1-29,29-29
	c2.4,0,2.8-3.6,0.4-4c-0.1,0-0.3,0-0.4,0c-19.4,0-35,16.9-32.7,36.8c1.7,15.1,13.8,27.2,29,29c19.8,2.2,36.8-13.4,36.8-32.7
	C95.2,60.6,95.2,60.4,95.2,60.3z"/>
<path class="st1" d="M75.9,36.3l7.1,0.5L60.7,59c-1.2,1.2-1.8,2.6-0.6,3.8c0.6,0.6,1.3,0.9,2.1,0.9s1.3-0.7,1.9-1.3l22.4-22.5
	l0.4,7.3c0.1,1.5,0.7,2.9,2.2,2.9h0.4c1.6-0.1,2.9-1.6,2.6-3.2L91,37.2c-0.3-2.7-2.5-4.9-5.2-5.2L76,30.7c-1.6-0.1-2.8,0.9-3,2.5
	S74.2,36,75.9,36.3z"/>
</svg>
