<?xml version="1.0" encoding="utf-8"?>
<!-- Generator: Adobe Illustrator 23.0.1, SVG Export Plug-In . SVG Version: 6.00 Build 0)  -->
<svg version="1.1" id="图层_1" xmlns="http://www.w3.org/2000/svg" xmlns:xlink="http://www.w3.org/1999/xlink" x="0px" y="0px"
	 viewBox="0 0 120 120" style="enable-background:new 0 0 120 120;" xml:space="preserve">
<style type="text/css">
	.st0{fill:#595757;}
	.st1{fill:#EFBA6B;}
</style>
<g>
	<path class="st0" d="M60.7,27.5c-18.4,0-33.4,15-33.4,33.4c0,18.4,15,33.4,33.4,33.4c18.4,0,33.4-15,33.4-33.4
		C94.1,42.5,79.1,27.5,60.7,27.5z M60.7,89.8c-15.9,0-28.8-12.9-28.8-28.8c0-15.9,12.9-28.8,28.8-28.8c15.9,0,28.8,12.9,28.8,28.8
		C89.5,76.8,76.6,89.8,60.7,89.8z"/>
</g>
<g>
	<path class="st1" d="M73.5,49.7c-0.3-1.2-1.6-1.9-2.8-1.6L54,52.7c-0.8,0.2-1.4,0.8-1.6,1.6l-4.6,16.7c-0.1,0.4-0.1,0.8,0,1.2
		c0.3,1.2,1.6,1.9,2.8,1.6l16.7-4.6c0.8-0.2,1.4-0.8,1.6-1.6l4.6-16.7C73.6,50.5,73.6,50.1,73.5,49.7z M64.9,65.1l-11.6,3.2
		l3.2-11.6L68,53.5L64.9,65.1z"/>
</g>
</svg>
