<?xml version="1.0" encoding="utf-8"?>
<!-- Generator: Adobe Illustrator 23.0.1, SVG Export Plug-In . SVG Version: 6.00 Build 0)  -->
<svg version="1.1" id="图层_1" xmlns="http://www.w3.org/2000/svg" xmlns:xlink="http://www.w3.org/1999/xlink" x="0px" y="0px"
	 viewBox="0 0 120 120" style="enable-background:new 0 0 120 120;" xml:space="preserve">
<style type="text/css">
	.st0{fill:#595757;}
	.st1{fill:#EFBA6B;}
</style>
<g>
	<g>
		<path class="st0" d="M80.1,31.6H37.5c-6.6,0-12,5.3-12,11.9v42.3c0,6.6,5.4,11.9,12,11.9h42.6c6.6,0,12-5.3,12-11.9V43.6
			C92,36.9,86.7,31.6,80.1,31.6z M87.6,85.9c0,3.6-3.9,7.5-7.5,7.5H37.5c-3.6,0-7.5-3.9-7.5-7.5V43.6c0-3.6,3.9-7.5,7.5-7.5h42.6
			c3.6,0,7.5,3.9,7.5,7.5V85.9z"/>
	</g>
</g>
<g>
	<path class="st1" d="M66.3,78.9L66.3,78.9c1.6,0,3-1.3,3-2.8V52.8c0-1.2-1-2.2-2.3-2.2h0c-1.3,0-2.3,1-2.3,2.2v17.1L53.8,52
		c-0.5-0.9-1.5-1.4-2.6-1.4h0c-1.6,0-3,1.3-3,2.8v23.3c0,1.2,1,2.2,2.3,2.2h0c1.3,0,2.3-1,2.3-2.2V59.6l10.8,17.9
		C64.3,78.3,65.3,78.9,66.3,78.9z"/>
</g>
</svg>
