<?xml version="1.0" encoding="utf-8"?>
<!-- Generator: Adobe Illustrator 23.0.1, SVG Export Plug-In . SVG Version: 6.00 Build 0)  -->
<svg version="1.1" id="图层_1" xmlns="http://www.w3.org/2000/svg" xmlns:xlink="http://www.w3.org/1999/xlink" x="0px" y="0px"
	 viewBox="0 0 120 120" style="enable-background:new 0 0 120 120;" xml:space="preserve">
<style type="text/css">
	.st0{fill:#EFBA6B;}
	.st1{fill:#595757;}
</style>
<path class="st0" d="M73.8,75.3H52.7c-1.1,0-2-0.9-2-2v0c0-1.1,0.9-2,2-2h21.1c1.1,0,2,0.9,2,2v0C75.8,74.4,74.9,75.3,73.8,75.3z"/>
<g>
	<path class="st1" d="M88.7,54.1l-7.1-20.7c-0.8-2.2-2.4-4-4.5-5.1c-2.2-1-4.6-1.2-6.9-0.5L31.8,40.5c-4.7,1.6-7.3,6.6-5.7,11.2
		l4.1,11.6v21.3c0,4.4,3.7,8,8.2,8h49.7c4.5,0,8.2-3.6,8.2-8V62C96.3,57.8,92.9,54.3,88.7,54.1z M30.2,46.7c0.6-1.2,1.6-2.1,2.9-2.5
		l38.3-12.6c1.3-0.4,2.6-0.3,3.8,0.3c1.2,0.6,2.1,1.6,2.5,2.8l6.7,19.4H38.3c-2.4,0-4.6,1.1-6.1,2.7l-2.3-6.4
		C29.5,49.2,29.6,47.8,30.2,46.7z M92.3,84.6c0,2.3-1.9,4.1-4.2,4.1H38.4c-2.3,0-4.2-1.8-4.2-4.1V62c0-2.2,1.8-4,4.1-4h50
		c2.3,0,4.1,1.8,4.1,4V84.6z"/>
</g>
</svg>
