<?xml version="1.0" encoding="utf-8"?>
<!-- Generator: Adobe Illustrator 23.0.1, SVG Export Plug-In . SVG Version: 6.00 Build 0)  -->
<svg version="1.1" id="图层_1" xmlns="http://www.w3.org/2000/svg" xmlns:xlink="http://www.w3.org/1999/xlink" x="0px" y="0px"
	 viewBox="0 0 120 120" style="enable-background:new 0 0 120 120;" xml:space="preserve">
<style type="text/css">
	.st0{fill:#919DAA;}
</style>
<g>
	<path class="st0" d="M60,0C26.86,0,0,26.86,0,60s26.86,60,60,60s60-26.86,60-60S93.14,0,60,0z M60,111.11
		C31.77,111.11,8.89,88.23,8.89,60S31.77,8.89,60,8.89S111.11,31.77,111.11,60S88.23,111.11,60,111.11z M65.09,33.33
		c-2.45,0-4.45,1.99-4.45,4.44v23.23L40.12,82.43c-1.72,1.75-1.69,4.57,0.06,6.29c1.75,1.72,4.57,1.69,6.29-0.06
		c0.03-0.03,0.05-0.06,0.08-0.08l21.44-22.39c0.99-1.04,1.54-2.41,1.54-3.84V37.78C69.53,35.32,67.54,33.33,65.09,33.33z"/>
</g>
</svg>
